<?xml version="1.0" encoding="UTF-8"?>
<svg width="322px" height="265px" viewBox="0 0 322 265" version="1.1" xmlns="http://www.w3.org/2000/svg" xmlns:xlink="http://www.w3.org/1999/xlink">
    <title>Map</title>
    <g id="Map" stroke="none" stroke-width="1" fill="none" fill-rule="evenodd">
        <g id="Group-5">
            <g id="Group-4">
                <g id="Group-2">
                    <rect id="Rectangle" fill="#B8D2E9" x="0" y="0" width="322" height="265"></rect>
                    <polygon id="Path-2" fill="#FFFFFF" points="99.4216954 7.90044021e-14 99.4216954 6.0261536 101.853576 9.30903971 101.853576 13.5906971 103.548889 15.7517483 105.110171 18.4539634 107.881355 21.1238022 112.372003 24.4889116 112.372003 29.279628 110.584921 35.7365752 105.896849 41.3857995 105.896849 44.685614 110.584921 47.1897971 112.372003 47.1897971 116.964079 47.1897971 121.503026 47.1897971 129.569045 44.685614 137.49258 41.3857995 142.868316 38.7679548 148.829683 38.7679548 153.932527 35.7365752 153.932527 31.4319437 157.728869 29.279628 161 24.4889116 167.257155 21.1238022 175.583992 21.1238022 184.878026 21.1238022 192.331848 24.4889116 200.691287 26.9120806 207.458048 26.9120806 211.801382 24.4889116 217.453633 29.279628 222.176118 29.279628 220.137878 35.7365752 214.349182 38.7679548 211.801382 41.3857995 211.801382 47.1897971 207.458048 48.7798506 202.737978 54.7555497 200.691287 63.9161925 195.38317 67.5098343 192.331848 72.2280007 192.331848 77.8881075 192.331848 83.5022659 189.950682 85.4949717 184.878026 85.4949717 182.553611 90.4440888 179.391201 94.8164336 167.257155 101.764302 153.932527 112.81729 142.868316 119.903004 142.868316 127.263198 140.267387 131.11014 133.7385 129.255904 129.569045 131.11014 126.351089 134.375514 119.822203 137.10702 112.372003 140.57249 107.881355 146.469594 105.896849 151.793552 105.896849 156.765643 105.896849 166.293873 101.853576 171.139001 94.6484959 175.901907 87.0364925 178.646714 76.5289332 187.784383 65.0952307 197.380325 58.4045405 206.501066 48.3835988 214.523883 36.4029044 219.000216 31.9472742 219.000216 31.9472742 216.237272 31.9472742 214.523883 28.9659867 214.523883 24.5924657 216.237272 22.9732245 220.829685 18.744602 225.292717 16.7111925 229.605813 28.9659867 236.679435 28.9659867 239.39764 24.5924657 236.679435 16.7111925 234.510191 5.59747429 232.646866 -1.16074677e-14 229.605813 -1.31491242e-14 7.90044021e-14"></polygon>
                    <polygon id="Path-3" fill="#FFFFFF" points="40.3561255 265 40.3561255 239.39764 45.2009046 232.8792 52.7413793 229.064668 64.7701149 222.059092 74.1009524 204.930502 85.1697918 190.295863 97.5292751 183.361728 108.185195 173.156448 111.088059 161.864395 111.088059 151.143872 119.550212 142.274328 129.401912 137.028805 142.833689 137.028805 147.561726 132.5 152.477847 124.312256 161 119.69882 166.428476 115.148287 175.233825 119.69882 186.735041 115.148287 192.329993 119.69882 200.627299 119.69882 212.643043 119.69882 227.183866 115.148287 234.685599 106.482242 248.0763 101.732479 257.77883 91.5726619 269.187085 85.201398 281.626558 79.6853147 291.192888 79.6853147 322 60.5325046 322 265"></polygon>
                    <g id="Group" transform="translate(101.781609, 182.461538)">
                        <circle id="Oval" fill="#758794" cx="5.2183908" cy="9.53846154" r="5"></circle>
                        <text id="Paragraph-text" font-family="GillSans-Light, Gill Sans" font-size="16" font-weight="300" letter-spacing="-0.2962286" fill="#353434">
                            <tspan x="15.2183908" y="14.5384615">The Moorings</tspan>
                        </text>
                    </g>
                    <ellipse id="Oval" fill="#758794" cx="176.729885" cy="133.426573" rx="4.62643678" ry="4.63286713"></ellipse>
                    <text id="Paragraph-text" font-family="GillSans-Light, Gill Sans" font-size="16" font-weight="300" letter-spacing="-0.2962286" fill="#353434">
                        <tspan x="185.982759" y="138.426573">Bangor</tspan>
                    </text>
                    <g id="Group" transform="translate(52.741379, 91.730769)">
                        <circle id="Oval" fill="#758794" cx="5.25862069" cy="9.26923077" r="5"></circle>
                        <text id="Paragraph-text" font-family="GillSans-Light, Gill Sans" font-size="16" font-weight="300" letter-spacing="-0.2962286" fill="#353434">
                            <tspan x="14.2586207" y="14.2692308">Anglesey</tspan>
                        </text>
                    </g>
                    <g id="Group" transform="translate(52.741379, 239.982517)">
                        <circle id="Oval" fill="#758794" cx="5" cy="9" r="5"></circle>
                        <text id="Paragraph-text" font-family="GillSans-Light, Gill Sans" font-size="16" font-weight="300" letter-spacing="-0.2962286" fill="#353434">
                            <tspan x="13.8793103" y="14">Caernarfon</tspan>
                        </text>
                    </g>
                </g>
                <g id="Group-3" transform="translate(172.000000, 129.000000)" fill="#758794">
                    <circle id="Oval" cx="5" cy="5" r="5"></circle>
                </g>
            </g>
            <line x1="111" y1="139" x2="117" y2="150" id="Line-3" stroke="#758794" stroke-width="4" stroke-linecap="square" transform="translate(114.000000, 144.500000) rotate(-17.000001) translate(-114.000000, -144.500000) "></line>
        </g>
    </g>
</svg>