<?xml version="1.0" encoding="UTF-8"?>
<svg width="291px" height="62px" viewBox="0 0 291 62" version="1.1" xmlns="http://www.w3.org/2000/svg" xmlns:xlink="http://www.w3.org/1999/xlink">
    <title>trip_advisor_image</title>
    <g id="Pages" stroke="none" stroke-width="1" fill="none" fill-rule="evenodd">
        <g id="Reviews" transform="translate(-98.000000, -286.000000)">
            <g id="trip_advisor_image" transform="translate(98.000000, 286.000000)">
                <path d="M289.364567,41.0034262 C288.462103,41.0034262 287.729134,41.7410422 287.729134,42.6492265 C287.729134,43.5574107 288.462017,44.2950268 289.364567,44.2950268 C290.266857,44.2950268 291,43.5574107 291,42.6492265 C290.999913,41.7410422 290.266857,41.0034262 289.364567,41.0034262 Z M289.364567,44.0340242 C288.60384,44.0340242 287.988405,43.4111096 287.988405,42.6492265 C287.988405,41.8836771 288.607309,41.2644288 289.364567,41.2644288 C290.125294,41.2644288 290.744111,41.887256 290.744111,42.6492265 C290.744111,43.4111969 290.125207,44.0340242 289.364567,44.0340242 Z M289.896989,42.3673611 C289.896989,42.0681247 289.686033,41.8906604 289.374802,41.8906604 L288.852616,41.8906604 L288.852616,43.3903342 L289.108418,43.3903342 L289.108418,42.8475535 L289.388508,42.8475535 L289.658188,43.3903342 L289.934809,43.3903342 L289.637457,42.7919486 C289.796715,42.7187981 289.896989,42.5725843 289.896989,42.3673611 Z M289.364567,42.614397 L289.112148,42.614397 L289.112148,42.1169209 L289.364567,42.1169209 C289.537357,42.1169209 289.6411,42.2038635 289.6411,42.3639568 C289.641014,42.5274544 289.533974,42.614397 289.364567,42.614397 Z M92.308493,24.3471836 L92.308493,20.3666759 L86.2440148,20.3666759 L86.2440148,44.0479036 L92.308493,44.0479036 L92.308493,29.8483152 C92.308493,27.2769595 93.9473958,26.0138467 96.5025541,26.0138467 L99.8218224,26.0138467 L99.8218224,20.3666759 L96.9865743,20.3666759 C94.7668472,20.3666759 92.8375323,21.5322838 92.308493,24.3471836 Z M105.502554,11 C103.428033,11 101.837532,12.649292 101.837532,14.7369635 C101.837532,16.7759262 103.428033,18.4252182 105.502554,18.4252182 C107.577075,18.4252182 109.167576,16.7759262 109.167576,14.7369635 C109.167489,12.6492047 107.577075,11 105.502554,11 Z M102.477168,44.0479909 L108.527941,44.0479909 L108.527941,20.3666759 L102.477168,20.3666759 L102.477168,44.0479909 Z M137.349956,32.2072897 C137.349956,38.9678679 131.904381,44.4481366 125.186302,44.4481366 C122.475529,44.4481366 120.017262,43.5539191 118.046397,42.0437703 L118.046397,51 L111.995711,51 L111.995711,20.3666759 L118.046397,20.3666759 L118.046397,22.3708092 C120.017262,20.8607477 122.475529,19.9665301 125.186302,19.9665301 C131.904381,19.9665301 137.349956,25.4467116 137.349956,32.2072897 Z M131.261276,32.2072897 C131.261276,28.5364934 128.30164,25.5580087 124.65388,25.5580087 C121.00612,25.5580087 118.046484,28.5364934 118.046484,32.2072897 C118.046484,35.8781733 121.006207,38.8565708 124.65388,38.8565708 C128.30164,38.8565708 131.261276,35.881665 131.261276,32.2072897 Z M242.514708,30.1300932 L238.98457,29.155829 C236.661186,28.5468812 235.758722,27.8301279 235.758722,26.5949484 C235.758722,25.3910194 237.031054,24.5490024 238.849773,24.5490024 C240.582096,24.5490024 241.940823,25.6902558 241.940823,27.1516085 L241.940823,27.28726 L247.517898,27.28726 L247.517898,27.1516085 C247.517898,22.8544059 244.036162,19.9664428 238.849773,19.9664428 C233.715429,19.9664428 229.984656,22.8509143 229.984656,26.8279303 C229.984656,29.9212038 232.021098,32.2524196 235.575437,33.2197005 L238.956986,34.1487475 C241.525849,34.8655007 242.480184,35.6588962 242.480184,37.082015 C242.480184,38.5816888 241.10064,39.5906951 239.046764,39.5906951 C236.906492,39.5906951 235.464754,38.2266729 235.464754,36.2016769 L235.464754,36.0659381 L229.545482,36.0659381 L229.545482,36.2016769 C229.545482,41.0590311 233.431782,44.4549454 238.998535,44.4549454 C244.361097,44.4549454 248.254337,41.1390777 248.254337,36.5739766 C248.254337,34.3331951 247.258453,31.4035938 242.514708,30.1300932 Z M158.814517,20.3666759 L164.865116,20.3666759 L164.865116,44.0479036 L158.814517,44.0479036 L158.814517,42.043683 C156.843652,43.5538318 154.385298,44.4480494 151.674612,44.4480494 C144.956706,44.4480494 139.511045,38.9678679 139.511045,32.2072024 C139.511045,25.446537 144.956706,19.9664428 151.674612,19.9664428 C154.385298,19.9664428 156.843739,20.8606604 158.814517,22.3707219 L158.814517,20.3666759 Z M158.814517,32.2072897 L158.814517,32.2072897 C158.814517,28.5330018 155.854794,25.5580087 152.207034,25.5580087 C148.559274,25.5580087 145.599724,28.5364934 145.599724,32.2072897 C145.599724,35.8781733 148.559274,38.8565708 152.207034,38.8565708 C155.858177,38.8565708 158.814517,35.881665 158.814517,32.2072897 Z M186.713424,11.9394347 L192.764197,11.9394347 L192.764197,44.0513953 L186.713424,44.0513953 L186.713424,42.0471747 C184.742559,43.5573235 182.284292,44.451541 179.573605,44.451541 C172.855526,44.451541 167.409865,38.9713595 167.409865,32.2106941 C167.409865,25.4500287 172.85544,19.9699345 179.573605,19.9699345 C182.284292,19.9699345 184.742559,20.8641521 186.713424,22.3742136 L186.713424,11.9394347 Z M186.713424,32.2072897 C186.713424,28.5364934 183.753701,25.5580087 180.105941,25.5580087 C176.458354,25.5580087 173.498631,28.5364934 173.498631,32.2072897 C173.498631,35.8781733 176.454798,38.8565708 180.105941,38.8565708 C183.753701,38.8565708 186.713424,35.881665 186.713424,32.2072897 Z M220.856712,44.0479909 L226.907311,44.0479909 L226.907311,20.3666759 L220.856712,20.3666759 L220.856712,44.0479909 Z M223.882012,11 C221.807491,11 220.21699,12.649292 220.21699,14.7369635 C220.21699,16.7759262 221.807491,18.4252182 223.882012,18.4252182 C225.956533,18.4252182 227.547033,16.7759262 227.547033,14.7369635 C227.547033,12.6492047 225.956533,11 223.882012,11 Z M274.407128,32.2072897 C274.407128,38.9678679 268.961554,44.4481366 262.243388,44.4481366 C255.525483,44.4481366 250.079822,38.9679552 250.079822,32.2072897 C250.079822,25.4466243 255.525396,19.9665301 262.243388,19.9665301 C268.961554,19.9665301 274.407128,25.4467116 274.407128,32.2072897 Z M268.850958,32.2072897 C268.850958,28.5364934 265.891235,25.5580087 262.243475,25.5580087 C258.595715,25.5580087 255.636166,28.5364934 255.636166,32.2072897 C255.636166,35.8781733 258.592332,38.8565708 262.243475,38.8565708 C265.891148,38.8565708 268.850958,35.881665 268.850958,32.2072897 Z M89.2105035,11.9394347 L66,11.9394347 L66,17.3709074 L74.5920525,17.3709074 L74.5920525,44.0479036 L80.6220074,44.0479036 L80.6220074,17.3709074 L89.2140599,17.3709074 L89.2140599,11.9394347 L89.2105035,11.9394347 Z M206.590867,37.5622074 L201.207487,20.3667632 L194.852423,20.3667632 L202.925845,44.0479909 L210.2074,44.0479909 L218.329138,20.3667632 L211.974074,20.3667632 L206.590867,37.5622074 Z M283.272244,24.3471836 L283.272244,20.3666759 L277.207766,20.3666759 L277.207766,44.0479036 L283.272244,44.0479036 L283.272244,29.8483152 C283.272244,27.2769595 284.911234,26.0138467 287.466219,26.0138467 L290.785487,26.0138467 L290.785487,20.3666759 L287.950413,20.3666759 C285.730512,20.3666759 283.804753,21.5322838 283.272244,24.3471836 Z" id="Shape" fill="#000000" fill-rule="nonzero"></path>
                <circle id="Oval" fill="#34E0A1" cx="31" cy="31" r="31"></circle>
                <path d="M50.2403477,25.4464063 L54,21.4300005 L45.6626354,21.4300005 C41.4887567,18.6304536 36.4479981,17 30.9965066,17 C25.5519145,17 20.5252168,18.6339695 16.3582375,21.4300005 L8,21.4300005 L11.7596523,25.4464063 C9.45516335,27.51095 8.01048011,30.4848362 8.01048011,33.7868198 C8.01048011,40.0181829 13.1556904,45.0702479 19.501834,45.0702479 C22.5165252,45.0702479 25.2631001,43.9285959 27.3135338,42.0622313 L30.996594,46 L34.6796542,42.0656615 C36.7300878,43.9320261 39.4731694,45.0702479 42.4878605,45.0702479 C48.8340042,45.0702479 53.9861139,40.0181829 53.9861139,33.7868198 C53.9895199,30.481406 52.544924,27.5076056 50.2403477,25.4464063 Z M19.5052401,41.423016 C15.2094427,41.423016 11.7283867,38.0049205 11.7283867,33.7868198 C11.7283867,29.5687191 15.2095301,26.1505379 19.5052401,26.1505379 C23.80095,26.1505379 27.2820934,29.5687191 27.2820934,33.7868198 C27.2820934,38.0049205 23.80095,41.423016 19.5052401,41.423016 Z M31,33.5646295 C31,28.5398345 27.2786874,24.2261173 22.3667469,22.3836782 C25.0228436,21.2932218 27.9365763,20.6882226 30.9965066,20.6882226 C34.0564369,20.6882226 36.9735757,21.2932218 39.6297597,22.3836782 C34.7213999,24.2295475 31,28.5399203 31,33.5646295 Z M42.4913539,41.423016 C38.1955566,41.423016 34.7144132,38.0049205 34.7144132,33.7868198 C34.7144132,29.5687191 38.1955566,26.1505379 42.4913539,26.1505379 C46.7871512,26.1505379 50.2682073,29.5687191 50.2682073,33.7868198 C50.2682073,38.0049205 46.7870639,41.423016 42.4913539,41.423016 Z M42.4913539,29.7806189 C40.2390035,29.7806189 38.4148529,31.5717767 38.4148529,33.7833896 C38.4148529,35.9949168 40.2390035,37.7860746 42.4913539,37.7860746 C44.743617,37.7860746 46.5677676,35.9949168 46.5677676,33.7833896 C46.5676803,31.5752068 44.743617,29.7806189 42.4913539,29.7806189 Z M23.5816537,33.7868198 C23.5816537,35.998347 21.7575032,37.7895048 19.5052401,37.7895048 C17.252977,37.7895048 15.4288264,35.998347 15.4288264,33.7868198 C15.4288264,31.5752068 17.252977,29.7840441 19.5052401,29.7840441 C21.7575032,29.7806189 23.5816537,31.5752068 23.5816537,33.7868198 Z" id="Shape" fill="#000000" fill-rule="nonzero"></path>
            </g>
        </g>
    </g>
</svg>