<?xml version="1.0" encoding="UTF-8"?>
<svg width="31px" height="27px" viewBox="0 0 31 27" version="1.1" xmlns="http://www.w3.org/2000/svg" xmlns:xlink="http://www.w3.org/1999/xlink">
    <title>Stroke 84</title>
    <g id="Icons-&amp;-Assets" stroke="none" stroke-width="1" fill="none" fill-rule="evenodd" stroke-linecap="round" stroke-linejoin="round">
        <g id="Icons" transform="translate(-210.000000, -217.000000)" stroke="#758794">
            <path d="M211.956522,219.315789 C214.467391,222.532893 218.964783,225.568419 225,225.894734 C224.667391,224.497366 224.634783,220.706578 227.266957,219.130263 C228.443478,218.426316 229.557391,218 230.869565,218 C232.519565,218 233.872174,218.571052 235.312174,219.957894 C236.484783,219.785526 238.673478,218.836842 239.192609,218.464474 C238.854783,219.772368 237.502174,221.45263 236.523913,221.851315 C237.421304,221.847367 239.396087,221.307894 240,220.988157 C239.161304,222.347367 237.696522,223.649998 236.894348,224.190788 C237.823043,232.572364 230.416957,242.989466 219.782609,243 C216.744783,243.002624 213.444783,242.352624 210,240.368414 C213.397826,240.76973 217.039565,239.659204 219.130435,237.736836 C216.494348,237.67631 213.823043,235.884205 212.608696,233.131574 C213.93,233.546048 215.148261,233.756574 215.869565,233.131574 C214.639565,232.9921 210.652174,230.78947 210.652174,226.523681 C211.56913,227.288155 212.887826,228.078944 213.913043,227.868418 C212.234348,226.865787 209.796522,223.048683 211.956522,219.315789 Z" id="Stroke-84"></path>
        </g>
    </g>
</svg>