<?xml version="1.0" encoding="UTF-8"?>
<svg width="33px" height="33px" viewBox="0 0 33 33" version="1.1" xmlns="http://www.w3.org/2000/svg" xmlns:xlink="http://www.w3.org/1999/xlink">
    <!-- Generator: Sketch 52.6 (67491) - http://www.bohemiancoding.com/sketch -->
    <title>Instagram Icon</title>
    <desc>Created with Sketch.</desc>
    <g id="Component-Library" stroke="none" stroke-width="1" fill="none" fill-rule="evenodd">
        <g id="Footer-2" transform="translate(-522.000000, -151.000000)" stroke="#758794">
            <path d="M551,178.999942 C551,179.552569 550.56888,180 550.03841,180 L526.961141,180 C526.43112,180 526,179.552569 526,178.999942 L526,164 L529.845462,164 C529.345112,164.749927 529.175631,166.149261 529.175631,167.037111 C529.175631,172.391795 533.37444,176.749226 538.534391,176.749226 C543.697488,176.749226 547.895398,172.391795 547.895398,167.037111 C547.895398,166.149261 547.77402,164.770966 547.153189,164 L551,164 L551,178.999942 L551,178.999942 Z M538.99886,162 C542.312821,162 545,164.686567 545,167.999543 C545,171.313433 542.312821,174 538.99886,174 C535.687179,174 533,171.313433 533,167.999543 C533,164.686567 535.687179,162 538.99886,162 L538.99886,162 Z M545,157.000468 C545,156.44834 545.44834,156 546,156 L548.999532,156 C549.550725,156 550,156.44834 550,157.000468 L550,160 C550,160.552127 549.550725,161 548.999532,161 L546,161 C545.44834,161 545,160.552127 545,160 L545,157.000468 L545,157.000468 Z M550.314495,152 L526.684146,152 C524.648671,152 523,153.64593 523,155.676392 L523,179.323155 C523,181.35407 524.648671,183 526.684146,183 L550.314495,183 C552.34997,183 554,181.35407 554,179.323155 L554,155.676392 C554,153.64593 552.34997,152 550.314495,152 L550.314495,152 Z" id="Instagram-Icon"></path>
        </g>
    </g>
</svg>