<?xml version="1.0" encoding="UTF-8"?>
<svg width="384px" height="394px" viewBox="0 0 384 394" version="1.1" xmlns="http://www.w3.org/2000/svg" xmlns:xlink="http://www.w3.org/1999/xlink">
    <title>Features Icon Set</title>
    <g id="Features-Icon-Set" stroke="none" stroke-width="1" fill="none" fill-rule="evenodd">
        <rect fill="#F7F7F7" x="0" y="0" width="384" height="394"></rect>
        <g id="Group-4" transform="translate(0.000000, 16.000000)" stroke="#758794">
            <path d="M46.0242211,1.04611278 C46.9613602,1.04611278 47.3082167,1.126015 47.6527061,1.31024995 C47.9586534,1.47387236 48.1987626,1.7139816 48.362385,2.01992891 C48.54662,2.36441831 48.6265222,2.71127481 48.6265222,3.64841387 L48.6265222,3.64841387 L48.6265222,28.3786007 C48.6265222,29.3157398 48.54662,29.6625963 48.362385,30.0070857 C48.1987626,30.313033 47.9586534,30.5531422 47.6527061,30.7167646 C47.3082167,30.9009996 46.9613602,30.9809018 46.0242211,30.9809018 L46.0242211,30.9809018 L3.52685901,30.9809018 C2.58971995,30.9809018 2.24286345,30.9009996 1.89837405,30.7167646 C1.59242674,30.5531422 1.3523175,30.313033 1.18869509,30.0070857 C1.00446014,29.6625963 0.92455792,29.3157398 0.92455792,28.3786007 L0.92455792,28.3786007 L0.92455792,3.64841387 C0.92455792,2.71127481 1.00446014,2.36441831 1.18869509,2.01992891 C1.3523175,1.7139816 1.59242674,1.47387236 1.89837405,1.31024995 C2.24286345,1.126015 2.58971995,1.04611278 3.52685901,1.04611278 L3.52685901,1.04611278 Z" id="Combined-Shape"></path>
            <path d="M29.0305651,31.1731256 L29.9419184,34.8185388 L19.6091617,34.8185388 L20.520515,31.1731256 L29.0305651,31.1731256 Z" id="Rectangle-11"></path>
        </g>
        <g id="Group" transform="translate(1.000000, 82.000000)" stroke="#768894" stroke-linecap="round" stroke-linejoin="round">
            <circle id="Oval" cx="24.5956294" cy="29.94682" r="3.37502875"></circle>
            <path d="M36.5184409,21.9171715 C29.9344153,15.3331459 19.254935,15.3331459 12.6747263,21.9171715" id="Path"></path>
            <path d="M42.4803237,15.957197 C32.6004686,6.08020447 16.589836,6.08020447 6.71666028,15.9591054" id="Path"></path>
            <path d="M48.2647242,10.169934 C35.1930479,-2.90269649 13.9991651,-2.90078807 0.927488818,10.1708882" id="Path"></path>
        </g>
        <g id="Group" transform="translate(13.000000, 146.000000)" stroke="#768894" stroke-linecap="round" stroke-linejoin="round">
            <path d="M8.24326923,67.5096338 L4.82596154,67.5096338 L4.82596154,24.7625352 C4.82596154,24.7625352 0.558653846,23.4868169 0.558653846,18.5956056 C0.558653846,13.7043944 0.558653846,0.0938591549 0.558653846,0.0938591549" id="Path"></path>
            <path d="M4.82788462,67.5096338 L8.24423077,67.5096338 L8.24423077,24.7625352 C8.24423077,24.7625352 12.5115385,23.4868169 12.5115385,18.5956056 C12.5115385,13.7043944 12.5115385,0.0938591549 12.5115385,0.0938591549" id="Path"></path>
            <line x1="4.82788462" y1="0.0929014085" x2="4.82788462" y2="17.744169" id="Path"></line>
            <line x1="8.6375" y1="0.0929014085" x2="8.6375" y2="17.744169" id="Path"></line>
            <line x1="24.4913462" y1="0.0929014085" x2="24.4913462" y2="67.5096338" id="Path"></line>
            <line x1="17.0076923" y1="29.0685634" x2="20.0538462" y2="0.0929014085" id="Path"></line>
            <polyline id="Path" points="24.4913462 67.5096338 21.4423077 67.5096338 21.4423077 29.024507"></polyline>
        </g>
        <g id="Group" transform="translate(5.000000, 244.000000)" stroke="#768894" stroke-linecap="round" stroke-linejoin="round">
            <rect id="Rectangle" x="0" y="0" width="41" height="48"></rect>
            <path d="M33,31.528109 C30.360462,35.4286526 25.8520977,38 20.7307488,38 C12.5934679,38 6,31.5057597 6,23.4988237 C6,15.4895352 12.5970526,9 20.7307488,9 C25.8425385,9 30.348513,11.5642898 32.9916357,15.4577756" id="Path"></path>
            <polyline id="Path" points="31 3 37 3 37 6"></polyline>
            <path d="M14,16.6393417 C15.0316502,16.2592129 16.2420875,15.9897097 17.6204397,16.0003016 C22.2157526,16.0309002 25.4979464,22.0117514 29,22" id="Path"></path>
            <rect id="Rectangle" x="33" y="18" width="4" height="11"></rect>
        </g>
        <g id="Group" transform="translate(240.000000, 0.000000)" stroke="#768894" stroke-linecap="round" stroke-linejoin="round">
            <path d="M47,52 L47,1.28498707 C47,0.577387522 46.4128733,-5.68434189e-14 45.695274,-5.68434189e-14 L45.304726,-5.68434189e-14 C44.5871267,-5.68434189e-14 44,0.577387522 44,1.28498707 L44,52" id="Path"></path>
            <line x1="50" y1="36.5" x2="49" y2="36.5" id="Path" stroke-width="0.8693"></line>
            <line x1="50" y1="38.5" x2="49" y2="38.5" id="Path" stroke-width="0.8693"></line>
            <line x1="50" y1="31.5" x2="53" y2="31.5" id="Path" stroke-width="0.8693"></line>
            <polyline id="Path" stroke-width="0.8693" points="51.5 33 51.5 37.1218503 51.5 52"></polyline>
            <line x1="54.5" y1="36" x2="54.5" y2="39" id="Path" stroke-width="0.8693"></line>
            <line x1="5" y1="36.5" x2="6" y2="36.5" id="Path" stroke-width="0.8693"></line>
            <line x1="5" y1="38.5" x2="6" y2="38.5" id="Path" stroke-width="0.8693"></line>
            <line x1="5" y1="32.5" x2="2" y2="32.5" id="Path" stroke-width="0.8693"></line>
            <polyline id="Path" stroke-width="0.8693" points="3.5 33 3.5 37.1283043 3.5 52"></polyline>
            <line x1="0.5" y1="36" x2="0.5" y2="39" id="Path" stroke-width="0.8693"></line>
            <g transform="translate(16.000000, -0.000000)" id="Path">
                <path d="M4.81333333,3.69462745 L2.875,3.69462745 L2.875,1.376 C2.875,0.680411765 2.31166667,0.111294118 1.625,0.111294118 L1.24916667,0.111294118 C0.5625,0.111294118 -0.000833333333,0.680411765 -0.000833333333,1.376 L-0.000833333333,41.7395098 C-0.000833333333,42.4359412 0.5625,43.0042157 1.24916667,43.0042157 L1.625,43.0042157 C2.31166667,43.0042157 2.875,42.4359412 2.875,41.7395098 L2.875,38.0684902 L4.60416667,38.0684902"></path>
                <line x1="2.87333333" y1="35.2996275" x2="2.87333333" y2="6.7644902"></line>
            </g>
            <polyline id="Path" points="11 52 11 39 13 39"></polyline>
            <g transform="translate(8.000000, -0.000000)" id="Path">
                <path d="M5.574,3.73547541 L3.57942857,3.73547541 L3.57942857,1.39121311 C3.57942857,0.687934426 3.00085714,0.11252459 2.29371429,0.11252459 L1.90714286,0.11252459 C1.20342857,0.11252459 0.621428571,0.687934426 0.621428571,1.39121311 L0.621428571,51.8286557"></path>
                <line x1="3.57942857" y1="35.6899016" x2="3.57942857" y2="6.83927869"></line>
            </g>
            <g transform="translate(22.000000, -0.000000)" id="Path">
                <path d="M5.18657143,3.69462745 L3.19114286,3.69462745 L3.19114286,1.376 C3.19114286,0.680411765 2.61342857,0.111294118 1.90542857,0.111294118 L1.52228571,0.111294118 C0.816,0.111294118 0.236571429,0.680411765 0.236571429,1.376 L0.236571429,41.7395098 C0.236571429,42.4359412 0.816,43.0042157 1.52228571,43.0042157 L1.90542857,43.0042157 C2.61342857,43.0042157 3.19114286,42.4359412 3.19114286,41.7395098 L3.19114286,38.0684902 L4.97228571,38.0684902"></path>
                <line x1="3.19114286" y1="35.2996275" x2="3.19114286" y2="6.7644902"></line>
            </g>
            <g transform="translate(29.000000, -0.000000)" id="Path">
                <path d="M5.41971429,3.69462745 L3.42428571,3.69462745 L3.42428571,1.376 C3.42428571,0.680411765 2.84657143,0.111294118 2.13857143,0.111294118 L1.75371429,0.111294118 C1.04742857,0.111294118 0.468,0.680411765 0.468,1.376 L0.468,41.7395098 C0.468,42.4359412 1.04742857,43.0042157 1.75371429,43.0042157 L2.13857143,43.0042157 C2.84657143,43.0042157 3.42428571,42.4359412 3.42428571,41.7395098 L3.42428571,38.0684902 L5.20542857,38.0684902"></path>
                <line x1="3.42342857" y1="35.2996275" x2="3.42342857" y2="6.7644902"></line>
            </g>
            <g transform="translate(36.000000, -0.000000)" id="Path">
                <path d="M5.65371429,3.69462745 L3.66428571,3.69462745 L3.66428571,1.376 C3.66428571,0.680411765 3.08228571,0.111294118 2.37857143,0.111294118 L1.992,0.111294118 C1.284,0.111294118 0.706285714,0.680411765 0.706285714,1.376 L0.706285714,41.7395098 C0.706285714,42.4359412 1.284,43.0042157 1.992,43.0042157 L2.37857143,43.0042157 C3.08228571,43.0042157 3.66428571,42.4359412 3.66428571,41.7395098 L3.66428571,38.0684902 L5.43942857,38.0684902"></path>
                <line x1="3.66085714" y1="35.2996275" x2="3.66085714" y2="6.7644902"></line>
            </g>
        </g>
        <text id="Smart-TV" font-family="GillSans-Light, Gill Sans" font-size="16" font-weight="300" letter-spacing="1.04000003" fill="#6B6B6E">
            <tspan x="70" y="34">Smart TV</tspan>
        </text>
        <text id="WIFI-(30-45Mb/s)" font-family="GillSans-Light, Gill Sans" font-size="16" font-weight="300" letter-spacing="1.04000003" fill="#6B6B6E">
            <tspan x="70" y="96">WIFI</tspan>
            <tspan x="70" y="114">(30-45Mb/s)</tspan>
        </text>
        <text id="Resturants-nearby-(2" font-family="GillSans-Light, Gill Sans" font-size="16" font-weight="300" letter-spacing="1.04000003" fill="#6B6B6E">
            <tspan x="70" y="174">Resturants nearby</tspan>
            <tspan x="70" y="192">(2 mins walk)</tspan>
        </text>
        <text id="Dishwasher-&amp;-washing" font-family="GillSans-Light, Gill Sans" font-size="16" font-weight="300" letter-spacing="1.04000003" fill="#6B6B6E">
            <tspan x="70" y="264">Dishwasher &amp; </tspan>
            <tspan x="70" y="282">washing machine</tspan>
        </text>
        <text id="Heating" font-family="GillSans-Light, Gill Sans" font-size="16" font-weight="300" letter-spacing="1.04000003" fill="#6B6B6E">
            <tspan x="310" y="38">Heating</tspan>
        </text>
        <text id="Iron" font-family="GillSans-Light, Gill Sans" font-size="16" font-weight="300" letter-spacing="1.04000003" fill="#6B6B6E">
            <tspan x="310" y="108">Iron</tspan>
        </text>
        <text id="Cot-(available)" font-family="GillSans-Light, Gill Sans" font-size="16" font-weight="300" letter-spacing="1.04000003" fill="#6B6B6E">
            <tspan x="310" y="178">Cot</tspan>
            <tspan x="310" y="196">(available)</tspan>
        </text>
        <text id="High-chair-(availabl" font-family="GillSans-Light, Gill Sans" font-size="16" font-weight="300" letter-spacing="1.04000003" fill="#6B6B6E">
            <tspan x="310" y="272">High chair</tspan>
            <tspan x="310" y="290">(available)</tspan>
        </text>
        <g id="Group-2" transform="translate(248.000000, 71.000000)" stroke="#768894">
            <circle id="Oval" cx="17.3411675" cy="10.1356402" r="1.5"></circle>
            <circle id="Oval" cx="21.3411675" cy="15.1356402" r="1.5"></circle>
            <circle id="Oval" cx="24.3411675" cy="21.1356402" r="1.5"></circle>
            <circle id="Oval" cx="26.3411675" cy="27.1356402" r="1.5"></circle>
            <circle id="Oval" cx="28.3411675" cy="34.1356402" r="1.5"></circle>
            <circle id="Oval" cx="13.3411675" cy="15.1356402" r="1.5"></circle>
            <circle id="Oval" cx="10.3411675" cy="21.1356402" r="1.5"></circle>
            <circle id="Oval" cx="8.34116748" cy="28.1356402" r="1.5"></circle>
            <circle id="Oval" cx="7.34116748" cy="34.1356402" r="1.5"></circle>
            <path d="M3.60707306,49.8279362 L6.15601943,57.6356402 L28.9862988,57.6356402 L30.9250006,50.044034 C24.8698618,51.1051048 20.3419174,51.6356402 17.3411675,51.6356402 C14.3404175,51.6356402 9.76238604,51.0330722 3.60707306,49.8279362 Z" id="Path-5"></path>
            <path d="M3.60707306,49.8279362 L2.41523492,49.5723227 L2.0172566,49.4121407 L1.73401322,49.3138892 L1.58377229,49.1853242 L1.44698578,48.9870053 L1.32598952,48.7620049 L1.23101445,48.5564685 L1.15500353,47.6467099 L1.08289538,46.6523353 L1.00593235,45.4597084 L0.906727186,44.0641403 L0.841167479,42.5875832 L0.841167479,41.8505051 L0.841167479,39.4933855 L0.841167479,38.0456004 L0.906727186,36.6327391 L1.00593235,35.5272125 L1.23101445,33.6272954 L1.53515199,31.5275849 L1.88948301,29.6573368 L2.32506743,27.3948606 L3.05074039,24.6753727 L3.52049715,23.1739826 L4.42132216,20.6704152 L5.93198041,17.0924596 L7.43179986,14.0657089 L9.18102469,11.0926383 L11.8650345,6.84034777 L15.0290694,2.74428645 L16.0445297,1.59114502 L16.5453388,1.08187374 L16.7708524,0.875749234 L16.9142914,0.768634828 L17.0628696,0.690879403 L17.2340375,0.635640175 L17.4020956,0.635640175 L17.584159,0.635640175 L17.728365,0.635640175 L17.9099649,0.690879403 L18.0889951,0.768634828 L18.2535664,0.938137068 L18.4071305,1.08187374 L19.0523373,1.77047181 L19.8629592,2.74428645 L20.8409138,3.92483993 L22.5608006,6.15799562 L23.7235767,7.83375119 L25.0577125,9.78715555 L26.8983335,13.0562475 L28.1767045,15.4304256 L29.2095034,17.799596 L30.5888186,21.4731384 L31.2998386,23.663479 L31.9507983,25.9035539 L32.4921845,28.1234063 L32.9080808,29.9577309 L33.1610934,31.3288106 L33.3455313,32.4490774 L33.4872828,33.8635075 L33.5808249,35.1001781 L33.6765652,36.7490658 L33.7576187,38.236111 L33.8411675,40.2179675 L33.8411675,42.655173 L33.7576187,45.3693601 L33.6765652,47.3628853 L33.5808249,48.3124658 L33.4872828,48.7620049 L33.3455313,49.082419 L33.1610934,49.3138892 L32.9080808,49.4121407 L32.3535149,49.5723227 L31.7353705,49.7138996 L31.2998386,49.8279362 C25.6670583,51.0330722 21.2037671,51.6356402 17.9099649,51.6356402 C14.6161627,51.6356402 9.84853208,51.0330722 3.60707306,49.8279362 Z" id="Path-6"></path>
        </g>
        <g id="Group-3" transform="translate(235.000000, 152.000000)" stroke="#768894" stroke-linecap="square">
            <line x1="8.37706605" y1="6.19672131" x2="8.37293395" y2="29.8032921" id="Line-2"></line>
            <line x1="51.377066" y1="6.20491803" x2="51.373102" y2="29.7950957" id="Line-2"></line>
            <line x1="45.377066" y1="6.20491803" x2="45.373102" y2="29.7950957" id="Line-2"></line>
            <line x1="37.377066" y1="6.20491803" x2="37.373102" y2="29.7950957" id="Line-2"></line>
            <line x1="30.377066" y1="6.20491803" x2="30.373102" y2="29.7950957" id="Line-2"></line>
            <line x1="22.377066" y1="6.20491803" x2="22.373102" y2="29.7950957" id="Line-2"></line>
            <line x1="1" y1="6" x2="59" y2="6" id="Line-3"></line>
            <line x1="0.5" y1="0.196153846" x2="0.5" y2="50.8038462" id="Line-2"></line>
            <line x1="59.5" y1="0.2" x2="59.5" y2="51.8" id="Line-2"></line>
            <line x1="1" y1="43" x2="59" y2="43" id="Line-3"></line>
            <line x1="1" y1="30.5" x2="59" y2="30.5" id="Line-3"></line>
            <line x1="14.7541321" y1="6.20491803" x2="14.746204" y2="29.7950957" id="Line-2"></line>
        </g>
        <g id="Group-5" transform="translate(246.000000, 233.000000)">
            <line x1="38" y1="17.5" x2="13.5" y2="17.5" id="Line-5" stroke="#768894" stroke-linecap="square"></line>
            <line x1="13.8214286" y1="33.1743119" x2="4.17857143" y2="70.8256881" id="Line-4" stroke="#768894" stroke-linecap="square"></line>
            <line x1="24" y1="33" x2="31" y2="71" id="Line-4" stroke="#768894" stroke-linecap="square"></line>
            <polyline id="Path-7" stroke="#768894" points="34 32.8202546 5.54858457 33 1 1"></polyline>
            <path d="" id="Path-9" stroke="#979797"></path>
        </g>
        <g id="Group-7" transform="translate(5.000000, 332.000000)" stroke="#768894">
            <line x1="14.5" y1="20.5" x2="17.5" y2="28.5" id="Line-8" stroke-linecap="square"></line>
            <line x1="17.375" y1="28.5" x2="25.625" y2="28.5" id="Line-9" stroke-linecap="square"></line>
            <line x1="26" y1="28" x2="29" y2="20" id="Line-10" stroke-linecap="square"></line>
            <circle id="Oval" cx="11.5" cy="7.5" r="1.5"></circle>
            <line x1="29.15" y1="7.5" x2="37.85" y2="7.5" id="Line-6" stroke-linecap="square"></line>
            <rect id="Rectangle" x="0" y="45" width="43" height="7"></rect>
            <rect id="Rectangle" x="1" y="13" width="41" height="32"></rect>
            <rect id="Rectangle" x="0" y="0" width="43" height="13"></rect>
            <circle id="Oval" cx="5.5" cy="7.5" r="1.5"></circle>
            <rect id="Rectangle" x="14" y="13" width="15" height="7"></rect>
            <line x1="13.8333333" y1="19.5" x2="6.16666667" y2="19.5" id="Line-7" stroke-linecap="square"></line>
        </g>
        <text id="Coffee-maker" font-family="GillSans-Light, Gill Sans" font-size="16" font-weight="300" letter-spacing="1.04000003" fill="#6B6B6E">
            <tspan x="70" y="364">Coffee maker</tspan>
        </text>
        <g id="Group-8" transform="translate(227.000000, 326.000000)" stroke="#768894">
            <line x1="12.2047244" y1="55.5" x2="63.7952756" y2="55.5" id="Line-12" stroke-linecap="square"></line>
            <line x1="24.2014925" y1="62.5" x2="50.7985075" y2="62.5" id="Line-11" stroke-linecap="square"></line>
            <line x1="2.20224719" y1="47.5" x2="73.7977528" y2="47.5" id="Line-28" stroke-linecap="square"></line>
            <line x1="68.2105263" y1="36.5" x2="75.7894737" y2="36.5" id="Line-29" stroke-linecap="square"></line>
            <line x1="64.1944444" y1="22.7727273" x2="70.8055556" y2="18.2272727" id="Line-13" stroke-linecap="square"></line>
            <line x1="52.2083333" y1="11.7894737" x2="56.7916667" y2="4.21052632" id="Line-14" stroke-linecap="square"></line>
            <line x1="38.5" y1="8.79545455" x2="38.5" y2="0.204545455" id="Line-15" stroke-linecap="square"></line>
            <line x1="24.7727273" y1="12.8055556" x2="20.2272727" y2="6.19444444" id="Line-16" stroke-linecap="square"></line>
            <line x1="12.8125" y1="22.7727273" x2="7.1875" y2="18.2272727" id="Line-17" stroke-linecap="square"></line>
            <line x1="7.78947368" y1="36.5" x2="0.210526316" y2="36.5" id="Line-18" stroke-linecap="square"></line>
            <path d="M39.7743876,40.3741311 C55.7895721,40.3741311 62,40.6880249 62,40.3741311 C62,39.9104136 61.7703385,40.5175373 61.7703436,37.6955052 C61.7703436,24.608839 51.0783108,14 37.88902,14 C24.6997291,14 14.0076963,24.608839 14.0076963,37.6955052 C14.0076963,39.7992055 13.9466429,40.6076559 14.1684523,40.8792536 C14.3988496,41.1613668 14.934437,40.8642513 16.1606442,40.8378485 C37.6967639,40.3741311 30.9075801,40.3741311 39.7743876,40.3741311 Z" id="Oval"></path>
        </g>
        <text id="Sea-view" font-family="GillSans-Light, Gill Sans" font-size="16" font-weight="300" letter-spacing="1.04000003" fill="#6B6B6E">
            <tspan x="314" y="366">Sea view</tspan>
        </text>
    </g>
</svg>