<?xml version="1.0" encoding="UTF-8"?>
<svg width="736px" height="684px" viewBox="0 0 736 684" version="1.1" xmlns="http://www.w3.org/2000/svg" xmlns:xlink="http://www.w3.org/1999/xlink" style="background: #F7F7F7;">
    <title>Floorplan</title>
    <g id="Floorplan" stroke="none" stroke-width="1" fill="none" fill-rule="evenodd">
        <rect fill="#F7F7F7" x="0" y="0" width="736" height="684"></rect>
        <g id="Group" transform="translate(0.000000, 83.000000)">
            <rect id="Rectangle" stroke="#979797" fill-rule="nonzero" x="0.5" y="109.5" width="332" height="299"></rect>
            <rect id="Rectangle" stroke="#979797" fill-rule="nonzero" x="0.5" y="125.5" width="5" height="59"></rect>
            <line x1="6" y1="259" x2="279" y2="259" id="Line-4" stroke="#979797" stroke-linecap="square" fill-rule="nonzero"></line>
            <rect id="Rectangle" stroke="#979797" fill-rule="nonzero" transform="translate(60.000000, 112.000000) rotate(90.000000) translate(-60.000000, -112.000000) " x="57.5" y="82.5" width="5" height="59"></rect>
            <path d="M327.5,114.5 L327.5,403.5 L5.5,403.5 L5.5,114.5 L327.5,114.5 Z" id="Rectangle" stroke="#979797" fill-rule="nonzero"></path>
            <line x1="282.961329" y1="269.652304" x2="312.461329" y2="269.652304" id="Line-5" stroke="#979797" stroke-linecap="square" fill-rule="nonzero" transform="translate(297.961329, 269.652304) rotate(-47.000000) translate(-297.961329, -269.652304) "></line>
            <line x1="326.5" y1="259" x2="308.5" y2="259" id="Line-6" stroke="#979797" stroke-linecap="square" fill-rule="nonzero"></line>
            <rect id="Rectangle" stroke="#979797" fill-rule="nonzero" x="42.5" y="408.5" width="290" height="138"></rect>
            <line x1="42.5" y1="392.5" x2="42.5" y2="403.5" id="Line-7" stroke="#979797" stroke-linecap="square" fill-rule="nonzero"></line>
            <rect id="Rectangle" stroke="#979797" fill-rule="nonzero" x="5.5" y="347.5" width="37" height="8"></rect>
            <rect id="Rectangle" stroke="#979797" fill-rule="nonzero" x="5.5" y="339.5" width="37" height="8"></rect>
            <rect id="Rectangle" stroke="#979797" fill-rule="nonzero" x="5.5" y="331.5" width="37" height="8"></rect>
            <rect id="Rectangle" stroke="#979797" fill-rule="nonzero" x="5.5" y="323.5" width="37" height="8"></rect>
            <rect id="Rectangle" stroke="#979797" fill-rule="nonzero" x="5.5" y="315.5" width="37" height="8"></rect>
            <rect id="Rectangle" stroke="#979797" fill-rule="nonzero" x="5.5" y="307.5" width="37" height="8"></rect>
            <rect id="Rectangle" stroke="#979797" fill-rule="nonzero" x="5.5" y="299.5" width="37" height="8"></rect>
            <rect id="Rectangle" stroke="#979797" fill-rule="nonzero" x="5.5" y="291.5" width="37" height="8"></rect>
            <rect id="Rectangle" stroke="#979797" fill-rule="nonzero" x="5.5" y="283.5" width="37" height="8"></rect>
            <rect id="Rectangle" stroke="#979797" fill-rule="nonzero" x="5.5" y="275.5" width="37" height="8"></rect>
            <rect id="Rectangle" stroke="#979797" fill-rule="nonzero" x="5.5" y="267.5" width="37" height="8"></rect>
            <rect id="Rectangle" stroke="#979797" fill-rule="nonzero" x="5.5" y="259.5" width="37" height="8"></rect>
            <line x1="39.8608571" y1="371.422799" x2="69.3608571" y2="371.422799" id="Line-5" stroke="#979797" stroke-linecap="square" fill-rule="nonzero" transform="translate(54.860857, 371.422799) rotate(35.000000) translate(-54.860857, -371.422799) "></line>
            <line x1="42.5" y1="356" x2="42.5" y2="362.047675" id="Line-8" stroke="#979797" stroke-linecap="square" fill-rule="nonzero"></line>
            <rect id="Rectangle" fill="#F7F7F7" fill-rule="nonzero" x="105" y="398" width="135" height="15"></rect>
            <line x1="105" y1="400.5" x2="105" y2="411.5" id="Line-9" stroke="#979797" stroke-linecap="square" fill-rule="nonzero"></line>
            <line x1="240" y1="400.5" x2="240" y2="411.5" id="Line-9" stroke="#979797" stroke-linecap="square" fill-rule="nonzero"></line>
            <rect id="Rectangle-2" fill="#F7F7F7" fill-rule="nonzero" x="266" y="108" width="45" height="8"></rect>
            <line x1="311.081659" y1="114.5" x2="311.081659" y2="109.5" id="Line-11" stroke="#979797" stroke-linecap="square" fill-rule="nonzero"></line>
            <line x1="266.5" y1="109.5" x2="266.5" y2="114.5" id="Line-2" stroke="#979797" stroke-linecap="square" fill-rule="nonzero"></line>
            <line x1="147.5" y1="0.584745763" x2="332.407643" y2="0.5" id="Line-3" stroke="#979797" stroke-linecap="square" fill-rule="nonzero"></line>
            <line x1="332.5" y1="109" x2="332.407643" y2="0.5" id="Line-12" stroke="#979797" stroke-linecap="square" fill-rule="nonzero"></line>
            <line x1="153" y1="75.5" x2="262" y2="75.5" id="Line-14" stroke="#979797" stroke-linecap="square" fill-rule="nonzero"></line>
            <line x1="307.097213" y1="75.5" x2="332" y2="75.5" id="Line-14" stroke="#979797" stroke-linecap="square" fill-rule="nonzero"></line>
            <path d="M147.727963,109.736473 L147.727963,100.434271 L147.727963,109.736473 Z" id="Line-5" stroke="#979797" stroke-linecap="square" fill-rule="nonzero"></path>
            <line x1="147.727963" y1="100" x2="152.5" y2="100" id="Line-20" stroke="#979797" stroke-linecap="square" fill-rule="nonzero"></line>
            <rect id="Rectangle" fill-rule="nonzero" x="286" y="1" width="2" height="70"></rect>
            <line x1="287" y1="5.5" x2="287" y2="75.5" id="Line-13" stroke="#979797" stroke-linecap="square" fill-rule="nonzero"></line>
            <line x1="147.5" y1="81.0933955" x2="147.5" y2="1" id="Line-10" stroke="#979797" stroke-linecap="square" fill-rule="nonzero"></line>
            <rect id="Rectangle" stroke="#979797" fill-rule="nonzero" x="147.5" y="17.3722481" width="5" height="39"></rect>
            <line x1="152.5" y1="75.5" x2="152.5" y2="5.5" id="Line-15" stroke="#979797" stroke-linecap="square" fill-rule="nonzero"></line>
            <line x1="326.5" y1="5.5" x2="152.5" y2="5.5" id="Line-15" stroke="#979797" stroke-linecap="square" fill-rule="nonzero"></line>
            <line x1="327.5" y1="5.5" x2="327.5" y2="75.5" id="Line-14" stroke="#979797" stroke-linecap="square" fill-rule="nonzero"></line>
            <line x1="259.959119" y1="68.979982" x2="277.210988" y2="71.351275" id="Line-5" stroke="#979797" stroke-linecap="square" fill-rule="nonzero" transform="translate(268.477067, 69.893139) rotate(-47.000000) translate(-268.477067, -69.893139) "></line>
            <line x1="293.058067" y1="67.0577007" x2="310.309936" y2="69.4289937" id="Line-5" stroke="#979797" stroke-linecap="square" fill-rule="nonzero" transform="translate(301.576015, 67.970858) rotate(-133.000000) translate(-301.576015, -67.970858) "></line>
            <text id="Paragraph-text" font-family="GranjonLTStd, Granjon LT Std" font-size="18" font-weight="normal" letter-spacing="1.17000003" fill="#758794">
                <tspan x="95" y="595">GROUND FLOOR</tspan>
            </text>
            <text id="Paragraph-text" font-family="GillSans-Light, Gill Sans" font-size="16" font-weight="300" letter-spacing="-0.2962286" fill="#6B6B6E">
                <tspan x="144" y="189">Kitchen</tspan>
            </text>
            <text id="Paragraph-text" font-family="GillSans-Light, Gill Sans" font-size="16" font-weight="300" letter-spacing="-0.2962286" fill="#6B6B6E">
                <tspan x="152" y="331">Lounge</tspan>
            </text>
            <text id="Paragraph-text" font-family="GillSans-Light, Gill Sans" font-size="16" font-weight="300" letter-spacing="-0.2962286" fill="#6B6B6E">
                <tspan x="164" y="483">Balcony</tspan>
            </text>
            <text id="Paragraph-text" font-family="GillSans-Light, Gill Sans" font-size="16" font-weight="300" letter-spacing="-0.2962286" fill="#6B6B6E">
                <tspan x="356.278018" y="22">Downstairs</tspan>
                <tspan x="375.38478" y="40">toilet</tspan>
            </text>
            <text id="Paragraph-text" font-family="GillSans-Light, Gill Sans" font-size="16" font-weight="300" letter-spacing="-0.2962286" fill="#6B6B6E">
                <tspan x="179.28909" y="40">Utility room</tspan>
            </text>
            <text id="Paragraph-text" font-family="GillSans-Light, Gill Sans" font-size="16" font-weight="300" letter-spacing="-0.2962286" fill="#6B6B6E">
                <tspan x="167.23408" y="96">Entrance hall</tspan>
            </text>
            <rect id="Rectangle" stroke="#979797" fill-rule="nonzero" transform="translate(308.000000, 3.000000) rotate(90.000000) translate(-308.000000, -3.000000) " x="305.5" y="-8.5" width="5" height="23"></rect>
            <path id="Line-16" d="M366.790172,27.8551741 L367.144826,28.7901716 L366.677327,28.9674988 L345.625,36.953 L347.043423,40.6929279 L337.032501,39.6773271 L343.851535,32.2779501 L345.27,36.018 L366.322673,28.0325012 L366.790172,27.8551741 Z" fill="#758794" fill-rule="nonzero"></path>
            <line x1="145.5" y1="81.5" x2="154.5" y2="81.5" id="Line-21" stroke="#979797" stroke-linecap="square" fill-rule="nonzero"></line>
            <line x1="147.5" y1="81.5" x2="151.5" y2="81.5" id="Line-18" stroke="#979797" stroke-linecap="square" fill-rule="nonzero"></line>
            <line x1="152.5" y1="75.5" x2="152.5" y2="81.5" id="Line-17" stroke="#979797" stroke-linecap="square" fill-rule="nonzero"></line>
            <line x1="152.5" y1="108.5" x2="152.5" y2="100.5" id="Line-19" stroke="#979797" stroke-linecap="square" fill-rule="nonzero"></line>
            <line x1="145.5" y1="100" x2="154.5" y2="100" id="Line-22" stroke="#979797" stroke-linecap="square" fill-rule="nonzero"></line>
            <line x1="285.961329" y1="123.652304" x2="315.461329" y2="123.652304" id="Line-5" stroke="#979797" stroke-linecap="square" fill-rule="nonzero" transform="translate(300.961329, 123.652304) rotate(-47.000000) translate(-300.961329, -123.652304) "></line>
        </g>
        <g id="Group-2" transform="translate(402.000000, 189.000000)">
            <rect id="Rectangle" stroke="#979797" fill-rule="nonzero" x="1" y="0.5" width="332" height="299"></rect>
            <line x1="30.5" y1="167.5" x2="59" y2="167.5" id="Line-4" stroke="#979797" stroke-linecap="square" fill-rule="nonzero"></line>
            <rect id="Rectangle" stroke="#979797" fill-rule="nonzero" transform="translate(89.500000, 3.000000) rotate(90.000000) translate(-89.500000, -3.000000) " x="87" y="-20.5" width="5" height="47"></rect>
            <path d="M328,5.5 L328,294.5 L6,294.5 L6,5.5 L328,5.5 Z" id="Rectangle" stroke="#979797" fill-rule="nonzero"></path>
            <rect id="Rectangle" stroke="#979797" fill-rule="nonzero" transform="translate(191.500000, 3.000000) rotate(90.000000) translate(-191.500000, -3.000000) " x="189" y="-20.5" width="5" height="47"></rect>
            <rect id="Rectangle" stroke="#979797" fill-rule="nonzero" x="59" y="299.5" width="274" height="45"></rect>
            <rect id="Rectangle" stroke="#979797" fill-rule="nonzero" transform="translate(10.000000, 149.000000) rotate(90.000000) translate(-10.000000, -149.000000) " x="-8.5" y="145" width="37" height="8"></rect>
            <rect id="Rectangle" fill="#F7F7F7" fill-rule="nonzero" x="136.5" y="289" width="74" height="15"></rect>
            <line x1="136.5" y1="290.5" x2="136.5" y2="304" id="Line-9" stroke="#979797" stroke-linecap="square" fill-rule="nonzero"></line>
            <line x1="210.5" y1="290.5" x2="210.5" y2="304" id="Line-9" stroke="#979797" stroke-linecap="square" fill-rule="nonzero"></line>
            <rect id="Rectangle" stroke="#979797" fill-rule="nonzero" transform="translate(18.000000, 149.000000) rotate(90.000000) translate(-18.000000, -149.000000) " x="-0.5" y="145" width="37" height="8"></rect>
            <rect id="Rectangle" stroke="#979797" fill-rule="nonzero" transform="translate(26.000000, 149.000000) rotate(90.000000) translate(-26.000000, -149.000000) " x="7.5" y="145" width="37" height="8"></rect>
            <line x1="38" y1="130.5" x2="50.0735764" y2="130.5" id="Line-4" stroke="#979797" stroke-linecap="square" fill-rule="nonzero"></line>
            <rect id="Rectangle" stroke="#979797" fill-rule="nonzero" transform="translate(34.000000, 149.000000) rotate(90.000000) translate(-34.000000, -149.000000) " x="15.5" y="145" width="37" height="8"></rect>
            <line x1="81" y1="107.739657" x2="130.25" y2="107.5" id="Line-4" stroke="#979797" stroke-linecap="square" fill-rule="nonzero"></line>
            <line x1="130.25" y1="107.5" x2="130.25" y2="6" id="Line" stroke="#979797" stroke-linecap="square" fill-rule="nonzero"></line>
            <line x1="130.25" y1="136.5" x2="130.25" y2="166.5" id="Line-4" stroke="#979797" stroke-linecap="square" fill-rule="nonzero"></line>
            <line x1="53.3608571" y1="99.4227986" x2="82.8608571" y2="99.4227986" id="Line-5" stroke="#979797" stroke-linecap="square" fill-rule="nonzero" transform="translate(68.360857, 99.422799) rotate(35.000000) translate(-68.360857, -99.422799) "></line>
            <line x1="50.0735764" y1="109.5" x2="50.0735764" y2="130" id="Line-4" stroke="#979797" stroke-linecap="square" fill-rule="nonzero"></line>
            <line x1="125.388866" y1="125.447158" x2="156.029331" y2="125.383658" id="Line-5" stroke="#979797" stroke-linecap="square" fill-rule="nonzero" transform="translate(140.529331, 125.383658) rotate(-47.000000) translate(-140.529331, -125.383658) "></line>
            <text id="Paragraph-text" font-family="GranjonLTStd, Granjon LT Std" font-size="18" font-weight="normal" letter-spacing="1.17000003" fill="#758794">
                <tspan x="108" y="395">FIRST FLOOR</tspan>
            </text>
            <text id="Paragraph-text" font-family="GillSans-Light, Gill Sans" font-size="16" font-weight="300" letter-spacing="-0.2962286" fill="#6B6B6E">
                <tspan x="166.5" y="86">Bedroom 2</tspan>
            </text>
            <text id="Paragraph-text" font-family="GillSans-Light, Gill Sans" font-size="16" font-weight="300" letter-spacing="-0.2962286" fill="#6B6B6E">
                <tspan x="35.5" y="58">Bathroom</tspan>
            </text>
            <text id="Paragraph-text" font-family="GillSans-Light, Gill Sans" font-size="16" font-weight="300" letter-spacing="-0.2962286" fill="#6B6B6E">
                <tspan x="86.5" y="232">Master bedroom</tspan>
            </text>
            <text id="Paragraph-text" font-family="GillSans-Light, Gill Sans" font-size="16" font-weight="300" letter-spacing="-0.2962286" fill="#6B6B6E">
                <tspan x="151" y="327">Balcony</tspan>
            </text>
            <line x1="128.589331" y1="80.8940744" x2="290.222942" y2="254.224902" id="Line-5" stroke="#979797" stroke-linecap="square" fill-rule="nonzero" transform="translate(209.384662, 167.421808) rotate(-47.000000) translate(-209.384662, -167.421808) "></line>
            <line x1="65.0028626" y1="179.447158" x2="95.6433275" y2="179.383658" id="Line-5" stroke="#979797" stroke-linecap="square" fill-rule="nonzero" transform="translate(80.143327, 179.383658) rotate(-47.000000) translate(-80.143327, -179.383658) "></line>
            <line x1="318" y1="38.5" x2="318" y2="62.5" id="Line-25" stroke="#979797" stroke-width="0.5" stroke-linecap="square" fill-rule="nonzero"></line>
            <line x1="301.5" y1="36.5" x2="236" y2="36.5" id="Line-24" stroke="#979797" stroke-width="0.5" stroke-linecap="square" fill-rule="nonzero"></line>
            <rect id="Rectangle" stroke="#979797" stroke-width="0.5" fill-rule="nonzero" x="301.75" y="33.25" width="4.5" height="35.5"></rect>
            <line x1="236" y1="36.5" x2="236" y2="65.5" id="Line-23" stroke="#979797" stroke-width="0.5" stroke-linecap="square" fill-rule="nonzero"></line>
            <line x1="301.5" y1="65.5" x2="236" y2="65.5" id="Line-24" stroke="#979797" stroke-width="0.5" stroke-linecap="square" fill-rule="nonzero"></line>
            <path d="M307.5,58.7013085 C313.239598,58.0373693 313.525268,55.3698837 313.496375,52.337471 C313.463696,48.9076296 312.504445,44.9125854 308.87075,41" id="Path-4" stroke="#979797" stroke-width="0.5" fill-rule="nonzero" transform="translate(310.499017, 49.850654) scale(1, -1) translate(-310.499017, -49.850654) "></path>
            <line x1="306.5" y1="38.5" x2="318" y2="38.5" id="Line-26" stroke="#979797" stroke-width="0.5" stroke-linecap="square" fill-rule="nonzero"></line>
            <line x1="306.5" y1="62.5" x2="318" y2="62.5" id="Line-26" stroke="#979797" stroke-width="0.5" stroke-linecap="square" fill-rule="nonzero"></line>
            <line x1="318" y1="104.5" x2="318" y2="128.5" id="Line-25" stroke="#979797" stroke-width="0.5" stroke-linecap="square" fill-rule="nonzero"></line>
            <line x1="301.5" y1="102.5" x2="236" y2="102.5" id="Line-24" stroke="#979797" stroke-width="0.5" stroke-linecap="square" fill-rule="nonzero"></line>
            <rect id="Rectangle" stroke="#979797" stroke-width="0.5" fill-rule="nonzero" x="301.75" y="99.25" width="4.5" height="35.5"></rect>
            <line x1="236" y1="102.5" x2="236" y2="131.5" id="Line-23" stroke="#979797" stroke-width="0.5" stroke-linecap="square" fill-rule="nonzero"></line>
            <line x1="301.5" y1="131.5" x2="236" y2="131.5" id="Line-24" stroke="#979797" stroke-width="0.5" stroke-linecap="square" fill-rule="nonzero"></line>
            <path d="M307.5,124.701308 C313.239598,124.037369 313.525268,121.369884 313.496375,118.337471 C313.463696,114.90763 312.504445,110.912585 308.87075,107" id="Path-4" stroke="#979797" stroke-width="0.5" fill-rule="nonzero" transform="translate(310.499017, 115.850654) scale(1, -1) translate(-310.499017, -115.850654) "></path>
            <line x1="306.5" y1="104.5" x2="318" y2="104.5" id="Line-26" stroke="#979797" stroke-width="0.5" stroke-linecap="square" fill-rule="nonzero"></line>
            <line x1="306.5" y1="128.5" x2="318" y2="128.5" id="Line-26" stroke="#979797" stroke-width="0.5" stroke-linecap="square" fill-rule="nonzero"></line>
            <line x1="291" y1="38.5" x2="291" y2="62.5" id="Line-27" stroke="#979797" stroke-width="0.5" stroke-linecap="square" fill-rule="nonzero"></line>
            <path d="M307.550324,246.816118 C312.93809,246.192878 313.257651,244.744001 313.420129,242.634986 C313.626512,239.956067 312.440983,236.240954 308.610356,232.116322" id="Path-4" stroke="#979797" stroke-width="0.5" fill-rule="nonzero"></path>
            <line x1="291" y1="208.5" x2="291" y2="249.5" id="Line-25" stroke="#979797" stroke-width="0.5" stroke-linecap="square" fill-rule="nonzero"></line>
            <line x1="318" y1="206.5" x2="318" y2="251.5" id="Line-25" stroke="#979797" stroke-width="0.5" stroke-linecap="square" fill-rule="nonzero"></line>
            <line x1="301.5" y1="204.5" x2="236" y2="204.5" id="Line-24" stroke="#979797" stroke-width="0.5" stroke-linecap="square" fill-rule="nonzero"></line>
            <rect id="Rectangle" stroke="#979797" stroke-width="0.5" fill-rule="nonzero" x="301.75" y="201.25" width="4.5" height="55.5"></rect>
            <line x1="236" y1="204.5" x2="236" y2="253.5" id="Line-23" stroke="#979797" stroke-width="0.5" stroke-linecap="square" fill-rule="nonzero"></line>
            <line x1="301.5" y1="253.5" x2="236" y2="253.5" id="Line-24" stroke="#979797" stroke-width="0.5" stroke-linecap="square" fill-rule="nonzero"></line>
            <path d="M307.5,226.701308 C313.239598,226.037369 313.525268,223.369884 313.496375,220.337471 C313.463696,216.90763 312.504445,212.912585 308.87075,209" id="Path-4" stroke="#979797" stroke-width="0.5" fill-rule="nonzero" transform="translate(310.499017, 217.850654) scale(1, -1) translate(-310.499017, -217.850654) "></path>
            <line x1="306.5" y1="206.5" x2="318" y2="206.5" id="Line-26" stroke="#979797" stroke-width="0.5" stroke-linecap="square" fill-rule="nonzero"></line>
            <line x1="306.5" y1="251.5" x2="318" y2="251.5" id="Line-26" stroke="#979797" stroke-width="0.5" stroke-linecap="square" fill-rule="nonzero"></line>
            <line x1="291" y1="105" x2="291" y2="129" id="Line-27" stroke="#979797" stroke-width="0.5" stroke-linecap="square" fill-rule="nonzero"></line>
        </g>
    </g>
</svg>